<?xml version="1.0" standalone="no"?>
<svg xmlns:xlink="http://www.w3.org/1999/xlink" id="wave" style="transform:rotate(0deg); transition: 0.3s" viewBox="0 0 1440 110" version="1.1" xmlns="http://www.w3.org/2000/svg"><defs><linearGradient id="sw-gradient-0" x1="0" x2="0" y1="1" y2="0"><stop stop-color="rgba(245, 138, 114, 1)" offset="0%"/><stop stop-color="rgba(255, 165, 145, 1)" offset="100%"/></linearGradient></defs><path style="transform:translate(0, 0px); opacity:1" fill="url(#sw-gradient-0)" d="M0,33L60,40.3C120,48,240,62,360,71.5C480,81,600,84,720,80.7C840,77,960,66,1080,64.2C1200,62,1320,70,1440,69.7C1560,70,1680,62,1800,62.3C1920,62,2040,70,2160,62.3C2280,55,2400,33,2520,23.8C2640,15,2760,18,2880,18.3C3000,18,3120,15,3240,14.7C3360,15,3480,18,3600,16.5C3720,15,3840,7,3960,18.3C4080,29,4200,59,4320,75.2C4440,92,4560,95,4680,91.7C4800,88,4920,77,5040,60.5C5160,44,5280,22,5400,16.5C5520,11,5640,22,5760,34.8C5880,48,6000,62,6120,73.3C6240,84,6360,92,6480,82.5C6600,73,6720,48,6840,33C6960,18,7080,15,7200,25.7C7320,37,7440,62,7560,69.7C7680,77,7800,66,7920,55C8040,44,8160,33,8280,34.8C8400,37,8520,51,8580,58.7L8640,66L8640,110L8580,110C8520,110,8400,110,8280,110C8160,110,8040,110,7920,110C7800,110,7680,110,7560,110C7440,110,7320,110,7200,110C7080,110,6960,110,6840,110C6720,110,6600,110,6480,110C6360,110,6240,110,6120,110C6000,110,5880,110,5760,110C5640,110,5520,110,5400,110C5280,110,5160,110,5040,110C4920,110,4800,110,4680,110C4560,110,4440,110,4320,110C4200,110,4080,110,3960,110C3840,110,3720,110,3600,110C3480,110,3360,110,3240,110C3120,110,3000,110,2880,110C2760,110,2640,110,2520,110C2400,110,2280,110,2160,110C2040,110,1920,110,1800,110C1680,110,1560,110,1440,110C1320,110,1200,110,1080,110C960,110,840,110,720,110C600,110,480,110,360,110C240,110,120,110,60,110L0,110Z"/></svg>