<?xml version="1.0" standalone="no"?>
<svg xmlns:xlink="http://www.w3.org/1999/xlink" id="wave" style="transform:rotate(0deg); transition: 0.3s" viewBox="0 0 1440 100" version="1.1" xmlns="http://www.w3.org/2000/svg"><defs><linearGradient id="sw-gradient-0" x1="0" x2="0" y1="1" y2="0"><stop stop-color="rgba(255, 165, 145, 1)" offset="0%"/><stop stop-color="rgba(255, 165, 145, 1)" offset="100%"/></linearGradient></defs><path style="transform:translate(0, 0px); opacity:1" fill="url(#sw-gradient-0)" d="M0,30L60,36.7C120,43,240,57,360,65C480,73,600,77,720,73.3C840,70,960,60,1080,58.3C1200,57,1320,63,1440,63.3C1560,63,1680,57,1800,56.7C1920,57,2040,63,2160,56.7C2280,50,2400,30,2520,21.7C2640,13,2760,17,2880,16.7C3000,17,3120,13,3240,13.3C3360,13,3480,17,3600,15C3720,13,3840,7,3960,16.7C4080,27,4200,53,4320,68.3C4440,83,4560,87,4680,83.3C4800,80,4920,70,5040,55C5160,40,5280,20,5400,15C5520,10,5640,20,5760,31.7C5880,43,6000,57,6120,66.7C6240,77,6360,83,6480,75C6600,67,6720,43,6840,30C6960,17,7080,13,7200,23.3C7320,33,7440,57,7560,63.3C7680,70,7800,60,7920,50C8040,40,8160,30,8280,31.7C8400,33,8520,47,8580,53.3L8640,60L8640,100L8580,100C8520,100,8400,100,8280,100C8160,100,8040,100,7920,100C7800,100,7680,100,7560,100C7440,100,7320,100,7200,100C7080,100,6960,100,6840,100C6720,100,6600,100,6480,100C6360,100,6240,100,6120,100C6000,100,5880,100,5760,100C5640,100,5520,100,5400,100C5280,100,5160,100,5040,100C4920,100,4800,100,4680,100C4560,100,4440,100,4320,100C4200,100,4080,100,3960,100C3840,100,3720,100,3600,100C3480,100,3360,100,3240,100C3120,100,3000,100,2880,100C2760,100,2640,100,2520,100C2400,100,2280,100,2160,100C2040,100,1920,100,1800,100C1680,100,1560,100,1440,100C1320,100,1200,100,1080,100C960,100,840,100,720,100C600,100,480,100,360,100C240,100,120,100,60,100L0,100Z"/></svg>