<?xml version="1.0" standalone="no"?>
<svg xmlns:xlink="http://www.w3.org/1999/xlink" id="wave" style="transform:rotate(180deg); transition: 0.3s" viewBox="0 0 1440 180" version="1.1" xmlns="http://www.w3.org/2000/svg"><defs><linearGradient id="sw-gradient-0" x1="0" x2="0" y1="1" y2="0"><stop stop-color="rgba(245, 138, 114, 1)" offset="0%"/><stop stop-color="rgba(255, 165, 145, 1)" offset="100%"/></linearGradient></defs><path style="transform:translate(0, 0px); opacity:1" fill="url(#sw-gradient-0)" d="M0,54L60,66C120,78,240,102,360,117C480,132,600,138,720,132C840,126,960,108,1080,105C1200,102,1320,114,1440,114C1560,114,1680,102,1800,102C1920,102,2040,114,2160,102C2280,90,2400,54,2520,39C2640,24,2760,30,2880,30C3000,30,3120,24,3240,24C3360,24,3480,30,3600,27C3720,24,3840,12,3960,30C4080,48,4200,96,4320,123C4440,150,4560,156,4680,150C4800,144,4920,126,5040,99C5160,72,5280,36,5400,27C5520,18,5640,36,5760,57C5880,78,6000,102,6120,120C6240,138,6360,150,6480,135C6600,120,6720,78,6840,54C6960,30,7080,24,7200,42C7320,60,7440,102,7560,114C7680,126,7800,108,7920,90C8040,72,8160,54,8280,57C8400,60,8520,84,8580,96L8640,108L8640,180L8580,180C8520,180,8400,180,8280,180C8160,180,8040,180,7920,180C7800,180,7680,180,7560,180C7440,180,7320,180,7200,180C7080,180,6960,180,6840,180C6720,180,6600,180,6480,180C6360,180,6240,180,6120,180C6000,180,5880,180,5760,180C5640,180,5520,180,5400,180C5280,180,5160,180,5040,180C4920,180,4800,180,4680,180C4560,180,4440,180,4320,180C4200,180,4080,180,3960,180C3840,180,3720,180,3600,180C3480,180,3360,180,3240,180C3120,180,3000,180,2880,180C2760,180,2640,180,2520,180C2400,180,2280,180,2160,180C2040,180,1920,180,1800,180C1680,180,1560,180,1440,180C1320,180,1200,180,1080,180C960,180,840,180,720,180C600,180,480,180,360,180C240,180,120,180,60,180L0,180Z"/></svg>